<?xml version="1.0" encoding="utf-8"?>
<!-- Generator: Adobe Illustrator 24.3.0, SVG Export Plug-In . SVG Version: 6.00 Build 0)  -->
<svg version="1.1" xmlns="http://www.w3.org/2000/svg" xmlns:xlink="http://www.w3.org/1999/xlink" x="0px" y="0px"
	 viewBox="0 0 500 500" style="enable-background:new 0 0 500 500;" xml:space="preserve">
<style type="text/css">
	.st0{fill:#5DC469;}
	.st1{fill:#FFFFFF;}
	.st2{fill:none;stroke:#B5E2B8;stroke-miterlimit:10;}
	.st3{font-family:'Roboto-Regular';}
	.st4{font-size:9.3543px;}
</style>
<g id="Capa_2">
	<g>
		<path class="st0" d="M354,126.1c-2.7,0-4.9-2.2-4.9-4.9s2.2-4.9,4.9-4.9s4.9,2.2,4.9,4.9S356.7,126.1,354,126.1z"/>
		<path class="st1" d="M354,116.9c2.4,0,4.4,2,4.4,4.4s-2,4.4-4.4,4.4c-2.4,0-4.4-2-4.4-4.4S351.6,116.9,354,116.9 M354,115.9
			c-3,0-5.4,2.4-5.4,5.4s2.4,5.4,5.4,5.4c3,0,5.4-2.4,5.4-5.4S357,115.9,354,115.9L354,115.9z"/>
	</g>
	<g>
		<path class="st0" d="M356.2,221c-2.7,0-4.9-2.2-4.9-4.9s2.2-4.9,4.9-4.9s4.9,2.2,4.9,4.9S358.8,221,356.2,221z"/>
		<path class="st1" d="M356.2,211.8c2.4,0,4.4,2,4.4,4.4c0,2.4-2,4.4-4.4,4.4c-2.4,0-4.4-2-4.4-4.4
			C351.8,213.7,353.8,211.8,356.2,211.8 M356.2,210.8c-3,0-5.4,2.4-5.4,5.4s2.4,5.4,5.4,5.4c3,0,5.4-2.4,5.4-5.4
			S359.1,210.8,356.2,210.8L356.2,210.8z"/>
	</g>
	<g>
		<path class="st0" d="M310.5,293.7c-2.7,0-4.9-2.2-4.9-4.9s2.2-4.9,4.9-4.9s4.9,2.2,4.9,4.9S313.2,293.7,310.5,293.7z"/>
		<path class="st1" d="M310.5,284.5c2.4,0,4.4,2,4.4,4.4s-2,4.4-4.4,4.4s-4.4-2-4.4-4.4S308.1,284.5,310.5,284.5 M310.5,283.5
			c-3,0-5.4,2.4-5.4,5.4s2.4,5.4,5.4,5.4s5.4-2.4,5.4-5.4S313.4,283.5,310.5,283.5L310.5,283.5z"/>
	</g>
	<g>
		<path class="st0" d="M284.8,330.1c-2.7,0-4.9-2.2-4.9-4.9s2.2-4.9,4.9-4.9s4.9,2.2,4.9,4.9S287.5,330.1,284.8,330.1z"/>
		<path class="st1" d="M284.8,320.9c2.4,0,4.4,2,4.4,4.4c0,2.4-2,4.4-4.4,4.4s-4.4-2-4.4-4.4C280.5,322.9,282.4,320.9,284.8,320.9
			 M284.8,319.9c-3,0-5.4,2.4-5.4,5.4s2.4,5.4,5.4,5.4c3,0,5.4-2.4,5.4-5.4S287.8,319.9,284.8,319.9L284.8,319.9z"/>
	</g>
	<g>
		<path class="st0" d="M270.5,324.4c-2.7,0-4.9-2.2-4.9-4.9s2.2-4.9,4.9-4.9s4.9,2.2,4.9,4.9S273.2,324.4,270.5,324.4z"/>
		<path class="st1" d="M270.5,315.2c2.4,0,4.4,2,4.4,4.4s-2,4.4-4.4,4.4s-4.4-2-4.4-4.4S268.1,315.2,270.5,315.2 M270.5,314.2
			c-3,0-5.4,2.4-5.4,5.4s2.4,5.4,5.4,5.4s5.4-2.4,5.4-5.4S273.5,314.2,270.5,314.2L270.5,314.2z"/>
	</g>
	<g>
		<path class="st0" d="M239.1,330.1c-2.7,0-4.9-2.2-4.9-4.9s2.2-4.9,4.9-4.9s4.9,2.2,4.9,4.9S241.8,330.1,239.1,330.1z"/>
		<path class="st1" d="M239.1,320.9c2.4,0,4.4,2,4.4,4.4c0,2.4-2,4.4-4.4,4.4s-4.4-2-4.4-4.4C234.8,322.9,236.7,320.9,239.1,320.9
			 M239.1,319.9c-3,0-5.4,2.4-5.4,5.4s2.4,5.4,5.4,5.4c3,0,5.4-2.4,5.4-5.4S242.1,319.9,239.1,319.9L239.1,319.9z"/>
	</g>
	<g>
		<path class="st0" d="M162.8,373.6c-2.7,0-4.9-2.2-4.9-4.9s2.2-4.9,4.9-4.9s4.9,2.2,4.9,4.9S165.5,373.6,162.8,373.6z"/>
		<path class="st1" d="M162.8,364.4c2.4,0,4.4,2,4.4,4.4s-2,4.4-4.4,4.4s-4.4-2-4.4-4.4S160.4,364.4,162.8,364.4 M162.8,363.4
			c-3,0-5.4,2.4-5.4,5.4s2.4,5.4,5.4,5.4c3,0,5.4-2.4,5.4-5.4S165.8,363.4,162.8,363.4L162.8,363.4z"/>
	</g>
	<g>
		<path class="st0" d="M136.4,364.4c-2.7,0-4.9-2.2-4.9-4.9s2.2-4.9,4.9-4.9s4.9,2.2,4.9,4.9S139.1,364.4,136.4,364.4z"/>
		<path class="st1" d="M136.4,355.2c2.4,0,4.4,2,4.4,4.4c0,2.4-2,4.4-4.4,4.4s-4.4-2-4.4-4.4C132.1,357.1,134,355.2,136.4,355.2
			 M136.4,354.2c-3,0-5.4,2.4-5.4,5.4s2.4,5.4,5.4,5.4c3,0,5.4-2.4,5.4-5.4S139.4,354.2,136.4,354.2L136.4,354.2z"/>
	</g>
	<g>
		<path class="st0" d="M150,382.9c-2.7,0-4.9-2.2-4.9-4.9s2.2-4.9,4.9-4.9s4.9,2.2,4.9,4.9S152.6,382.9,150,382.9z"/>
		<path class="st1" d="M150,373.7c2.4,0,4.4,2,4.4,4.4s-2,4.4-4.4,4.4s-4.4-2-4.4-4.4S147.6,373.7,150,373.7 M150,372.7
			c-3,0-5.4,2.4-5.4,5.4s2.4,5.4,5.4,5.4s5.4-2.4,5.4-5.4S152.9,372.7,150,372.7L150,372.7z"/>
	</g>
	<g>
		<path class="st0" d="M230.6,328.7c-2.7,0-4.9-2.2-4.9-4.9s2.2-4.9,4.9-4.9s4.9,2.2,4.9,4.9S233.3,328.7,230.6,328.7z"/>
		<path class="st1" d="M230.6,319.5c2.4,0,4.4,2,4.4,4.4s-2,4.4-4.4,4.4s-4.4-2-4.4-4.4S228.2,319.5,230.6,319.5 M230.6,318.5
			c-3,0-5.4,2.4-5.4,5.4s2.4,5.4,5.4,5.4c3,0,5.4-2.4,5.4-5.4S233.5,318.5,230.6,318.5L230.6,318.5z"/>
	</g>
	<g>
		<path class="st0" d="M314.8,313.7c-2.7,0-4.9-2.2-4.9-4.9s2.2-4.9,4.9-4.9s4.9,2.2,4.9,4.9S317.5,313.7,314.8,313.7z"/>
		<path class="st1" d="M314.8,304.5c2.4,0,4.4,2,4.4,4.4c0,2.4-2,4.4-4.4,4.4s-4.4-2-4.4-4.4C310.4,306.5,312.4,304.5,314.8,304.5
			 M314.8,303.5c-3,0-5.4,2.4-5.4,5.4s2.4,5.4,5.4,5.4s5.4-2.4,5.4-5.4S317.7,303.5,314.8,303.5L314.8,303.5z"/>
	</g>
	<g>
		<path class="st0" d="M314.8,308c-2.7,0-4.9-2.2-4.9-4.9s2.2-4.9,4.9-4.9s4.9,2.2,4.9,4.9S317.5,308,314.8,308z"/>
		<path class="st1" d="M314.8,298.8c2.4,0,4.4,2,4.4,4.4c0,2.4-2,4.4-4.4,4.4s-4.4-2-4.4-4.4C310.4,300.8,312.4,298.8,314.8,298.8
			 M314.8,297.8c-3,0-5.4,2.4-5.4,5.4s2.4,5.4,5.4,5.4s5.4-2.4,5.4-5.4S317.7,297.8,314.8,297.8L314.8,297.8z"/>
	</g>
	<line class="st2" x1="323.6" y1="303.5" x2="356.2" y2="303.5"/>
	<path class="st2" d="M315.1,315.5L315.1,315.5c0,11.6,9.4,21,21,21h18.5"/>
	<line class="st2" x1="346.8" y1="120.2" x2="314.7" y2="120.2"/>
</g>
<g id="Capa_1">
	<text transform="matrix(1 0 0 1 248.3086 123.667)" class="st1 st3 st4">Sapporo Dome</text>
	<text transform="matrix(1 0 0 1 397.9497 218.7041)"><tspan x="0" y="0" class="st1 st3 st4">Kamaishi Recovery</tspan><tspan x="0" y="11.2" class="st1 st3 st4">Memorial Stadium</tspan></text>
	<text transform="matrix(1 0 0 1 359.5586 307.6035)" class="st1 st3 st4">Tokio Stadium</text>
	<text transform="matrix(1 0 0 1 269.2505 203.7441)"><tspan x="0" y="0" class="st1 st3 st4">Kumagaya</tspan><tspan x="-18.6" y="11.2" class="st1 st3 st4">Rugby Stadium</tspan></text>
	<text transform="matrix(1 0 0 1 219.019 240.3555)"><tspan x="0" y="0" class="st1 st3 st4">City of Toyota </tspan><tspan x="25.6" y="11.2" class="st1 st3 st4">Stadium</tspan></text>
	<text transform="matrix(1 0 0 1 136.7578 283.3682)"><tspan x="0" y="0" class="st1 st3 st4">Kobe Misaki </tspan><tspan x="18.8" y="11.2" class="st1 st3 st4">Stadium</tspan></text>
	<text transform="matrix(1 0 0 1 284.9053 365.3379)"><tspan x="0" y="0" class="st1 st3 st4">Shizuoka</tspan><tspan x="0" y="11.2" class="st1 st3 st4">Stadium</tspan></text>
	<text transform="matrix(1 0 0 1 222.4717 382.2686)"><tspan x="0" y="0" class="st1 st3 st4">Hanazono</tspan><tspan x="0" y="11.2" class="st1 st3 st4">Rugby</tspan><tspan x="0" y="22.5" class="st1 st3 st4">Stadium</tspan></text>
	<text transform="matrix(1 0 0 1 57.8779 349.665)"><tspan x="0" y="0" class="st1 st3 st4">Fukuoka</tspan><tspan x="-23.8" y="11.2" class="st1 st3 st4">Hakatanomori</tspan><tspan x="0.8" y="22.5" class="st1 st3 st4">Stadium</tspan></text>
	<text transform="matrix(1 0 0 1 157.4102 425.834)" class="st1 st3 st4">Oita Stadium</text>
	<text transform="matrix(1 0 0 1 71.0879 411.1357)"><tspan x="0" y="0" class="st1 st3 st4">Kumamoto</tspan><tspan x="11.6" y="11.2" class="st1 st3 st4">Stadium</tspan></text>
	<text transform="matrix(1 0 0 1 359.8081 338.5215)"><tspan x="0" y="0" class="st1 st3 st4">International </tspan><tspan x="0" y="11.2" class="st1 st3 st4">Stadium Yokohoama</tspan></text>
	<path class="st2" d="M200.1,283.5L200.1,283.5c16.8,0,30.5,13.7,30.5,30.5v3.8"/>
	<line class="st2" x1="239.1" y1="332.1" x2="239.1" y2="371.6"/>
	<line class="st2" x1="284.8" y1="330.6" x2="284.8" y2="354.9"/>
	<line class="st2" x1="270.5" y1="313" x2="270.5" y2="256.1"/>
	<line class="st2" x1="309.4" y1="218.7" x2="309.4" y2="280.5"/>
	<line class="st2" x1="362.2" y1="217.2" x2="393.7" y2="217.2"/>
	<line class="st2" x1="128.7" y1="358.4" x2="99.6" y2="358.4"/>
	<path class="st2" d="M142.5,379h-13c-11.5,0-20.8,9.3-20.8,20.8v0"/>
	<line class="st2" x1="164" y1="376" x2="164" y2="413"/>
</g>
</svg>
